<svg width="202" height="100" viewBox="0 0 202 100" fill="none" xmlns="http://www.w3.org/2000/svg" xmlns:xlink="http://www.w3.org/1999/xlink">
<path d="M136.408,0L136.408,6.228L87.043,6.228C84.479,6.23 81.991,6.923 79.978,8.195C77.966,9.468 76.548,11.247 75.951,13.245L64.389,51.913L55.098,51.913L66.682,13.185C66.929,12.357 66.939,11.495 66.71,10.663C66.482,9.831 66.022,9.052 65.364,8.384C64.706,7.715 63.868,7.175 62.912,6.803C61.956,6.431 60.907,6.237 59.845,6.237L43.707,6.237C43.707,5.418 43.908,4.608 44.299,3.852C44.69,3.096 45.263,2.409 45.985,1.83C46.707,1.251 47.565,0.792 48.508,0.479C49.452,0.165 50.463,0.004 51.485,0.004L136.408,0Z" fill="#0A0A0B"/>
<path d="M107.358,29.261C105.802,29.074 104.214,29.156 102.702,29.501C101.189,29.846 99.785,30.446 98.586,31.261L98.559,31.261C97.565,31.88 96.332,32.201 95.074,32.169C94.12,32.187 93.172,32.04 92.295,31.738C91.418,31.437 90.632,30.988 89.99,30.422L89.953,30.383C87.815,28.533 89.573,25.53 92.711,25.53L98.864,25.53C106.615,25.53 110.864,18.248 105.877,13.506L105.839,13.472C102.967,10.85 99.047,9.538 94.08,9.535C92.023,9.492 89.98,9.806 88.09,10.455C86.199,11.105 84.506,12.074 83.127,13.296C80.24,15.801 78.797,19.266 78.797,23.692C78.797,27.405 79.896,30.473 82.095,32.898C84.875,35.93 89.163,37.447 94.962,37.447C98.618,37.447 101.666,36.773 104.108,35.425C106.549,34.077 108.33,32.111 109.453,29.527L107.358,29.261ZM89.867,16.646C90.455,16.122 91.171,15.702 91.972,15.412C92.772,15.121 93.639,14.967 94.517,14.958C95.396,14.95 96.267,15.087 97.076,15.362C97.885,15.637 98.614,16.044 99.216,16.556L99.254,16.59C101.29,18.346 99.623,21.221 96.629,21.221L88.012,21.221C87.991,19.29 88.609,17.765 89.867,16.646Z" fill="#0A0A0B"/>
<path d="M132.013,9.553L131.9,9.553C131.003,9.532 130.11,9.657 129.275,9.92C128.439,10.184 127.68,10.581 127.041,11.087C126.745,11.32 126.346,11.453 125.93,11.455C125.504,11.455 125.096,11.32 124.796,11.079C124.495,10.838 124.326,10.511 124.326,10.17L116.137,10.17L116.137,36.874L124.957,36.874L124.957,28.606C124.957,24.063 125.203,21.079 125.694,19.654C126.186,18.229 126.86,17.244 127.715,16.698C128.612,16.145 129.721,15.857 130.853,15.884C132.344,15.942 133.783,16.343 134.995,17.041L136.166,14.398C136.409,13.858 136.488,13.279 136.396,12.709C136.304,12.14 136.045,11.596 135.639,11.122C135.233,10.649 134.693,10.26 134.062,9.987C133.432,9.714 132.729,9.565 132.013,9.553Z" fill="#0A0A0B"/>
<path d="M156.324,9.551L156.266,9.551C154.918,9.535 153.594,9.833 152.454,10.408C152.081,10.605 151.734,10.832 151.417,11.085C151.12,11.319 150.722,11.451 150.305,11.453C149.88,11.453 149.472,11.318 149.171,11.077C148.871,10.836 148.702,10.509 148.702,10.168L140.48,10.168L140.48,36.872L149.279,36.872L149.279,28.605C149.279,24.061 149.525,21.077 150.017,19.652C150.509,18.227 151.184,17.242 152.043,16.696C152.939,16.142 154.048,15.855 155.18,15.883C156.672,15.94 158.11,16.342 159.323,17.039L160.472,14.435C160.716,13.892 160.795,13.312 160.705,12.74C160.615,12.168 160.356,11.622 159.952,11.146C159.547,10.669 159.008,10.277 158.377,9.999C157.747,9.722 157.043,9.569 156.324,9.551Z" fill="#0A0A0B"/>
<path d="M192.604,33.28C192.266,31.563 192.125,29.825 192.181,28.088L192.272,19.838C192.272,16.771 191.88,14.664 191.096,13.516C190.312,12.368 188.958,11.421 187.034,10.676C185.109,9.927 182.18,9.553 178.246,9.553C173.916,9.553 170.653,10.174 168.458,11.417C166.263,12.659 164.715,14.569 163.813,17.148L166.919,17.598C168.071,17.783 169.261,17.741 170.389,17.476C171.516,17.211 172.547,16.731 173.392,16.077C173.554,15.939 173.733,15.814 173.927,15.704C175.026,15.16 176.308,14.9 177.599,14.959C179.919,14.959 181.501,15.25 182.335,15.816C182.771,16.129 183.096,16.53 183.276,16.977C183.503,17.539 183.609,18.129 183.591,18.72C183.592,18.933 183.509,19.14 183.355,19.313C183.2,19.486 182.982,19.616 182.73,19.684C180.207,20.314 177.634,20.806 175.028,21.157C172.614,21.472 170.258,22.026 168.014,22.807C166.448,23.395 165.132,24.34 164.23,25.522C163.32,26.74 162.853,28.138 162.883,29.557C162.844,30.618 163.089,31.672 163.601,32.65C164.112,33.628 164.879,34.508 165.85,35.229C167.827,36.72 170.53,37.465 173.959,37.465C175.844,37.475 177.712,37.176 179.448,36.587C181.242,35.952 182.874,35.056 184.259,33.944C184.324,34.081 184.43,34.372 184.575,34.775C184.575,34.785 184.575,34.795 184.575,34.805C184.793,35.399 185.246,35.921 185.866,36.292C186.486,36.662 187.239,36.862 188.012,36.861L194.181,36.861C193.469,35.725 192.94,34.522 192.604,33.28ZM183.27,28.894C182.914,29.838 182.172,30.66 181.164,31.228C179.858,32.031 178.262,32.473 176.615,32.487C175.969,32.506 175.326,32.42 174.722,32.234C174.119,32.049 173.568,31.768 173.103,31.408C172.662,31.08 172.311,30.683 172.072,30.24C171.834,29.798 171.714,29.32 171.719,28.838C171.72,28.34 171.88,27.85 172.182,27.415C172.483,26.98 172.918,26.613 173.445,26.349C174.199,25.946 175.803,25.535 178.256,25.115C179.732,24.863 180.966,24.627 181.966,24.417C182.161,24.377 182.365,24.373 182.562,24.405C182.76,24.437 182.945,24.505 183.105,24.603C183.265,24.701 183.394,24.828 183.484,24.972C183.574,25.116 183.622,25.275 183.623,25.437C183.684,26.596 183.566,27.757 183.27,28.894Z" fill="#0A0A0B"/>
<path d="M168.125,74.441L168.125,74.518L168.558,74.441L168.125,74.441ZM182.023,51.939L167.804,51.939C166.969,52.45 166.186,53.013 165.463,53.623L184.391,53.623C183.667,53.005 182.882,52.435 182.044,51.918L182.023,51.939ZM178.554,44.833L177.378,50.252L179.516,50.252L180.622,45.111L178.554,44.833ZM184.498,44.242L180.179,50.239L182.595,50.239L186.337,45.068L184.498,44.242ZM174.742,44.092L174.005,50.252L176.143,50.252L176.859,44.255L174.742,44.092ZM170.669,44.092L168.59,44.285L169.386,49.853L165.169,45.141L163.469,46.126L167.211,50.282L171.578,50.282L170.669,44.092Z" fill="#0A0A0B"/>
<path d="M188.345,57.011L161.484,57.011C162.163,56.342 162.837,55.704 163.489,55.117L186.335,55.117C186.988,55.704 187.661,56.342 188.345,57.011Z" fill="#0A0A0B"/>
<path d="M200.005,71.87L200.005,71.909C199.934,72.519 199.604,73.09 199.07,73.528C198.418,73.978 197.413,74.265 195.104,73.301C192.966,72.414 190.095,72.32 186.979,73.986C186.049,74.492 184.974,74.509 183.691,74.218C182.319,73.866 181.013,73.369 179.805,72.74C178.75,72.28 177.522,72.144 176.352,72.359C175.116,72.545 173.904,72.823 172.733,73.19C171.363,73.609 169.966,73.97 168.547,74.269L168.114,74.269L168.114,74.346C167.399,74.482 166.661,74.527 165.928,74.479C164.414,74.289 162.945,73.915 161.572,73.37C160.203,72.911 158.829,72.406 157.333,72.778L156.937,72.873C154.526,73.412 152.698,73.207 151.49,72.817C150.977,72.663 150.509,72.429 150.111,72.127C150.004,72.035 149.914,71.931 149.844,71.819C149.937,71.376 150.098,70.945 150.325,70.534C150.773,69.714 151.276,68.915 151.832,68.139C153.121,66.306 154.911,64.079 156.878,61.855C157.712,60.917 158.584,59.975 159.46,59.063L190.405,59.063C191.282,59.975 192.148,60.917 192.982,61.855L193.372,62.284C195.184,64.357 196.825,66.413 198.022,68.122C198.579,68.898 199.082,69.697 199.53,70.517C199.772,70.946 199.932,71.403 200.005,71.87Z" fill="#C93803"/>
<path d="M190.38,81.04L190.38,97.699L189.311,97.699C188.288,97.699 187.275,97.538 186.329,97.224C185.384,96.91 184.525,96.45 183.802,95.87C183.079,95.29 182.505,94.601 182.114,93.843C181.723,93.086 181.522,92.274 181.523,91.454L181.523,87.2C181.416,85.123 180.938,83.068 180.101,81.1C179.671,80.075 179.006,79.124 178.139,78.295C177.761,77.894 177.272,77.57 176.711,77.346C176.15,77.123 175.532,77.007 174.905,77.007C174.278,77.007 173.66,77.123 173.099,77.346C172.538,77.57 172.049,77.894 171.671,78.295C170.805,79.126 170.141,80.081 169.715,81.109C169.304,82.027 168.989,82.972 168.774,83.932C168.769,83.979 168.769,84.026 168.774,84.073C168.774,84.54 168.774,85.041 168.774,85.568L168.774,87.423L160.948,87.423C160.664,87.423 160.393,87.333 160.192,87.172C159.992,87.011 159.879,86.793 159.879,86.566L159.879,74.654C160.141,74.726 160.413,74.816 160.734,74.919C162.303,75.529 163.98,75.942 165.705,76.144C168.33,76.363 171.024,75.446 173.43,74.752C174.485,74.433 175.57,74.18 176.674,73.994C176.979,73.961 177.286,73.942 177.594,73.938C177.98,73.933 178.36,74.011 178.695,74.165C180.066,74.879 181.554,75.439 183.116,75.827C184.751,76.183 186.569,76.2 188.135,75.369C188.274,75.297 188.432,75.252 188.596,75.237C188.76,75.222 188.926,75.237 189.082,75.283C189.237,75.328 189.378,75.401 189.491,75.497C189.605,75.593 189.69,75.709 189.739,75.836C189.792,75.982 189.84,76.127 189.883,76.264C190.264,77.837 190.431,79.439 190.38,81.04Z" fill="#0A0A0B"/>
<path d="M0,69.727C0,65.812 0.731,62.528 2.192,59.875C3.28,57.921 4.793,56.137 6.66,54.606C8.547,53.051 10.568,51.796 12.861,51.145C19.719,49.196 19.516,50.648 23.205,49.625C58.746,39.721 26.909,49.719 40.171,54.893C45.661,57.035 46.537,63.293 46.537,69.552C46.537,75.81 44.431,80.616 40.219,84.116C36.007,87.616 30.384,89.376 23.333,89.376C16.282,89.376 10.504,87.633 6.318,84.142C2.133,80.65 0,75.831 0,69.727ZM9.98,69.466C9.98,73.818 11.236,77.118 13.749,79.365C14.958,80.426 16.429,81.273 18.068,81.854C19.708,82.434 21.48,82.735 23.272,82.738C25.065,82.74 26.838,82.444 28.48,81.868C30.122,81.292 31.597,80.448 32.81,79.391C35.284,77.164 36.522,73.821 36.525,69.363C36.525,64.954 35.319,61.67 32.907,59.511C30.494,57.352 27.287,56.267 23.285,56.256C19.29,56.256 16.072,57.354 13.631,59.55C11.19,61.746 9.973,65.045 9.98,69.449L9.98,69.466Z" fill="#0A0A0B"/>
<path d="M62.143,88.701L52.949,88.701L52.949,60.858L61.502,60.858C61.502,61.122 61.6,61.381 61.783,61.602C61.965,61.822 62.225,61.995 62.529,62.098C62.834,62.202 63.169,62.231 63.494,62.182C63.819,62.134 64.119,62.01 64.356,61.826C64.682,61.562 65.041,61.325 65.425,61.119C66.615,60.519 67.997,60.209 69.403,60.228L69.461,60.228C70.214,60.24 70.952,60.396 71.615,60.682C72.277,60.969 72.845,61.378 73.271,61.875C73.697,62.373 73.969,62.945 74.064,63.543C74.159,64.142 74.075,64.75 73.818,65.317L72.637,68.015C71.369,67.29 69.868,66.872 68.312,66.812C67.131,66.785 65.974,67.087 65.041,67.668C64.15,68.24 63.446,69.266 62.929,70.748C62.412,72.23 62.151,75.347 62.143,80.099L62.143,88.701Z" fill="#0A0A0B"/>
<path d="M78.773,57.069L78.773,50.254L87.968,50.254L87.968,57.069L78.773,57.069ZM78.773,81.327L78.773,60.847L87.968,60.847L87.968,88.69C85.53,88.69 83.192,87.915 81.468,86.534C79.744,85.153 78.775,83.28 78.773,81.327Z" fill="#0A0A0B"/>
<path d="M95.879,90.532L100.006,90.935C102.775,91.266 105.389,92.173 107.585,93.565C108.457,94.088 109.836,94.349 111.712,94.349C114.114,94.349 115.914,94.063 117.111,93.492C117.968,93.056 118.615,92.399 118.945,91.629C119.228,91.021 119.367,89.89 119.367,88.249L119.367,84.184C116.619,87.191 113.15,88.695 108.959,88.695C104.294,88.695 100.597,87.113 97.867,83.948C95.729,81.447 94.66,78.334 94.66,74.61C94.66,69.941 96.062,66.372 98.867,63.901C100.17,62.713 101.78,61.767 103.586,61.128C105.391,60.49 107.349,60.174 109.323,60.205C113.62,60.205 117.166,61.717 119.96,64.741C119.96,63.705 120.474,62.711 121.388,61.979C122.302,61.246 123.542,60.834 124.835,60.834L128.577,60.834L128.577,85.825C128.577,89.114 128.239,91.572 127.561,93.197C127.019,94.642 126.041,95.957 124.712,97.026C123.306,98.036 121.634,98.779 119.821,99.202C117.306,99.776 114.696,100.04 112.081,99.986C106.19,99.986 102.012,99.178 99.546,97.562C98.372,96.841 97.425,95.911 96.779,94.845C96.133,93.78 95.807,92.608 95.825,91.423C95.825,91.179 95.852,90.884 95.879,90.532ZM104.09,74.195C104.09,77.15 104.802,79.314 106.228,80.684C106.851,81.331 107.653,81.853 108.57,82.211C109.487,82.568 110.495,82.751 111.514,82.745C112.599,82.754 113.673,82.569 114.658,82.204C115.643,81.838 116.514,81.302 117.207,80.633C118.757,79.228 119.533,77.143 119.533,74.379C119.533,71.495 118.791,69.353 117.309,67.954C116.631,67.284 115.772,66.748 114.797,66.384C113.821,66.02 112.756,65.839 111.68,65.855C110.635,65.839 109.599,66.016 108.653,66.374C107.707,66.731 106.877,67.259 106.228,67.915C104.806,69.286 104.093,71.379 104.09,74.195Z" fill="#0A0A0B"/>
<path d="M136.98,57.069L136.98,50.254L146.18,50.254L146.18,57.069L136.98,57.069ZM136.98,81.327L136.98,60.847L146.18,60.847L146.18,88.69C144.973,88.691 143.777,88.501 142.661,88.131C141.545,87.762 140.531,87.219 139.677,86.536C138.823,85.852 138.145,85.04 137.682,84.146C137.22,83.253 136.981,82.295 136.98,81.327Z" fill="#0A0A0B"/>
<circle cx="63" cy="37" r="5" fill="#E61C5D"/>
</svg>
