<svg width="60" height="52" viewBox="0 0 60 52" fill="none" xmlns="http://www.w3.org/2000/svg" xmlns:xlink="http://www.w3.org/1999/xlink">
<path d="M16.047,0C11.54,0 7.464,1.135 4.506,3.901C1.52,6.694 0,10.841 0,16.162L0,35.838C0,41.159 1.52,45.306 4.506,48.099C7.464,50.866 11.54,52 16.047,52L43.953,52C48.46,52 52.536,50.866 55.494,48.099C58.48,45.306 60,41.159 60,35.838L60,16.162C60,10.841 58.48,6.694 55.494,3.901C52.536,1.135 48.46,0 43.953,0L16.047,0ZM50.173,15.775C51.087,15.063 51.256,13.739 50.549,12.818C49.842,11.897 48.528,11.727 47.613,12.439L32.133,24.487C30.877,25.465 29.123,25.465 27.867,24.487L12.387,12.439C11.472,11.727 10.158,11.897 9.451,12.818C8.744,13.739 8.913,15.063 9.827,15.775L25.307,27.823C28.071,29.974 31.928,29.974 34.692,27.823L50.173,15.775Z" clip-rule="evenodd" fill-rule="evenodd" fill="#5B5B5B"/>
</svg>
