<svg width="502" height="300" viewBox="0 0 502 300" fill="none" xmlns="http://www.w3.org/2000/svg" xmlns:xlink="http://www.w3.org/1999/xlink">
<path d="M341.018,0L341.018,18.685L217.604,18.685C211.196,18.689 204.975,20.768 199.944,24.586C194.914,28.405 191.367,33.741 189.875,39.734L160.969,155.738L137.743,155.738L166.702,39.555C167.32,37.07 167.344,34.484 166.774,31.989C166.203,29.494 165.052,27.156 163.408,25.151C161.763,23.145 159.667,21.524 157.278,20.408C154.888,19.293 152.267,18.712 149.61,18.711L109.266,18.711C109.266,16.255 109.769,13.824 110.746,11.555C111.723,9.287 113.155,7.226 114.961,5.489C116.766,3.753 118.91,2.376 121.269,1.436C123.628,0.496 126.156,0.013 128.71,0.013L341.018,0Z" fill="#0A0A0B"/>
<path d="M268.398,87.783C264.509,87.222 260.54,87.468 256.758,88.503C252.976,89.538 249.467,91.338 246.468,93.784L246.401,93.784C243.916,95.641 240.834,96.604 237.688,96.509C235.303,96.56 232.934,96.119 230.742,95.215C228.549,94.31 226.584,92.963 224.979,91.265L224.886,91.15C219.54,85.598 223.937,76.59 231.782,76.59L247.163,76.59C266.54,76.59 277.164,54.744 264.696,40.518L264.603,40.415C257.422,32.55 247.622,28.614 235.203,28.605C230.062,28.477 224.954,29.419 220.228,31.366C215.502,33.314 211.269,36.221 207.821,39.888C200.604,47.402 196.996,57.798 196.996,71.077C196.996,82.214 199.745,91.42 205.241,98.693C212.191,107.791 222.913,112.341 237.408,112.341C246.548,112.341 254.17,110.319 260.273,106.275C266.375,102.231 270.83,96.333 273.636,88.58L268.398,87.783ZM224.672,49.938C226.141,48.367 227.932,47.106 229.933,46.235C231.934,45.363 234.101,44.9 236.297,44.875C238.493,44.85 240.671,45.262 242.693,46.087C244.715,46.912 246.538,48.131 248.045,49.668L248.139,49.771C253.23,55.039 249.061,63.662 241.577,63.662L220.035,63.662C219.981,57.871 221.527,53.296 224.672,49.938Z" fill="#0A0A0B"/>
<path d="M330.034,28.659L329.753,28.659C327.51,28.595 325.276,28.97 323.188,29.761C321.1,30.552 319.201,31.742 317.606,33.26C316.863,33.961 315.867,34.358 314.826,34.365C313.763,34.365 312.743,33.959 311.991,33.236C311.239,32.513 310.817,31.532 310.817,30.51L290.344,30.51L290.344,110.621L312.394,110.621L312.394,85.819C312.394,72.189 313.009,63.236 314.238,58.961C315.467,54.686 317.151,51.731 319.289,50.094C321.532,48.434 324.304,47.571 327.134,47.653C330.862,47.825 334.459,49.03 337.491,51.123L340.417,43.194C341.024,41.573 341.221,39.836 340.992,38.127C340.763,36.419 340.114,34.787 339.1,33.367C338.085,31.947 336.734,30.779 335.158,29.961C333.581,29.142 331.825,28.696 330.034,28.659Z" fill="#0A0A0B"/>
<path d="M390.809,28.654L390.662,28.654C387.294,28.605 383.984,29.498 381.134,31.224C380.201,31.816 379.332,32.496 378.541,33.255C377.799,33.956 376.802,34.353 375.762,34.36C374.698,34.36 373.679,33.954 372.927,33.231C372.175,32.508 371.752,31.527 371.752,30.505L351.199,30.505L351.199,110.616L373.196,110.616L373.196,85.814C373.196,72.184 373.81,63.231 375.04,58.956C376.269,54.681 377.958,51.726 380.105,50.089C382.347,48.427 385.119,47.564 387.949,47.648C391.677,47.821 395.273,49.026 398.306,51.117L401.179,43.304C401.788,41.677 401.987,39.935 401.761,38.22C401.534,36.505 400.889,34.866 399.878,33.437C398.866,32.008 397.517,30.83 395.941,29.998C394.364,29.167 392.606,28.706 390.809,28.654Z" fill="#0A0A0B"/>
<path d="M481.507,99.84C480.663,94.69 480.31,89.476 480.451,84.265L480.678,59.514C480.678,50.313 479.698,43.991 477.738,40.547C475.778,37.103 472.393,34.263 467.582,32.027C462.771,29.782 455.448,28.66 445.612,28.66C434.788,28.66 426.631,30.523 421.143,34.25C415.655,37.976 411.784,43.708 409.53,51.444L417.295,52.793C420.175,53.348 423.152,53.223 425.97,52.428C428.789,51.634 431.365,50.193 433.478,48.231C433.883,47.816 434.33,47.441 434.814,47.113C437.564,45.48 440.769,44.7 443.995,44.877C449.795,44.877 453.751,45.751 455.835,47.447C456.927,48.387 457.739,49.589 458.187,50.93C458.754,52.618 459.021,54.387 458.976,56.16C458.977,56.798 458.77,57.42 458.384,57.939C457.998,58.458 457.453,58.847 456.824,59.052C450.516,60.941 444.083,62.417 437.567,63.472C431.532,64.416 425.643,66.078 420.034,68.42C416.119,70.186 412.829,73.019 410.573,76.567C408.297,80.221 407.13,84.414 407.205,88.672C407.109,91.853 407.721,95.017 409,97.951C410.279,100.885 412.196,103.523 414.622,105.687C419.566,110.159 426.324,112.395 434.895,112.395C439.608,112.426 444.279,111.529 448.619,109.76C453.104,107.856 457.182,105.167 460.646,101.832C460.807,102.243 461.074,103.117 461.435,104.325C461.437,104.355 461.437,104.385 461.435,104.415C461.981,106.198 463.114,107.763 464.663,108.875C466.212,109.987 468.094,110.586 470.028,110.583L485.449,110.583C483.671,107.175 482.347,103.566 481.507,99.84ZM458.174,86.681C457.282,89.515 455.429,91.981 452.909,93.684C449.642,96.092 445.652,97.418 441.536,97.462C439.922,97.517 438.312,97.259 436.804,96.703C435.295,96.146 433.919,95.303 432.756,94.224C431.653,93.241 430.775,92.048 430.179,90.72C429.583,89.393 429.282,87.96 429.295,86.514C429.299,85.019 429.697,83.551 430.452,82.245C431.207,80.939 432.294,79.839 433.612,79.047C435.496,77.839 439.505,76.606 445.639,75.346C449.327,74.588 452.414,73.881 454.913,73.252C455.401,73.131 455.91,73.118 456.404,73.215C456.897,73.311 457.361,73.515 457.76,73.809C458.16,74.104 458.484,74.483 458.708,74.916C458.933,75.349 459.052,75.826 459.056,76.31C459.208,79.789 458.912,83.272 458.174,86.681Z" fill="#0A0A0B"/>
<path d="M420.312,223.323L420.312,223.554L421.394,223.323L420.312,223.323ZM455.057,155.818L419.51,155.818C417.422,157.349 415.465,159.038 413.657,160.868L460.977,160.868C459.167,159.015 457.205,157.305 455.11,155.754L455.057,155.818ZM446.384,134.499L443.444,150.755L448.789,150.755L451.556,135.334L446.384,134.499ZM461.244,132.725L450.447,150.716L456.487,150.716L465.841,135.205L461.244,132.725ZM436.856,132.275L435.012,150.755L440.357,150.755L442.148,132.764L436.856,132.275ZM426.673,132.275L421.474,132.854L423.465,149.56L412.922,135.424L408.672,138.379L418.026,150.845L428.944,150.845L426.673,132.275Z" fill="#0A0A0B"/>
<path d="M470.859,171.032L403.707,171.032C405.404,169.027 407.088,167.112 408.718,165.352L465.834,165.352C467.465,167.112 469.149,169.027 470.859,171.032Z" fill="#0A0A0B"/>
<path d="M500.017,215.611L500.017,215.727C499.839,217.556 499.014,219.27 497.679,220.584C496.048,221.934 493.536,222.795 487.763,219.903C482.418,217.243 475.241,216.961 467.45,221.959C465.125,223.476 462.439,223.527 459.232,222.653C455.802,221.598 452.535,220.107 449.516,218.22C446.88,216.84 443.81,216.433 440.883,217.076C437.793,217.634 434.764,218.468 431.836,219.569C428.411,220.828 424.918,221.909 421.373,222.807L420.29,222.807L420.29,223.039C418.501,223.447 416.657,223.581 414.824,223.437C411.039,222.866 407.367,221.743 403.933,220.109C400.512,218.734 397.077,217.217 393.336,218.336L392.347,218.618C386.32,220.237 381.749,219.621 378.729,218.451C377.448,217.99 376.275,217.287 375.281,216.382C375.014,216.106 374.789,215.794 374.613,215.457C374.846,214.129 375.25,212.834 375.816,211.602C376.936,209.143 378.194,206.745 379.585,204.418C382.805,198.918 387.282,192.236 392.2,185.566C394.285,182.752 396.463,179.925 398.654,177.188L476.016,177.188C478.208,179.925 480.373,182.752 482.458,185.566L483.433,186.851C487.963,193.071 492.066,199.239 495.06,204.367C496.45,206.694 497.708,209.092 498.828,211.55C499.434,212.839 499.834,214.208 500.017,215.611Z" fill="#F2EEE9"/>
<path d="M475.956,243.121L475.956,293.098L473.283,293.098C470.725,293.098 468.192,292.613 465.829,291.671C463.466,290.729 461.319,289.349 459.511,287.609C457.702,285.869 456.269,283.804 455.291,281.53C454.313,279.257 453.811,276.821 453.812,274.361L453.812,261.601C453.547,255.368 452.35,249.205 450.258,243.301C449.183,240.226 447.52,237.371 445.353,234.884C444.407,233.683 443.185,232.71 441.783,232.039C440.38,231.369 438.835,231.02 437.268,231.02C435.702,231.02 434.157,231.369 432.754,232.039C431.351,232.71 430.129,233.683 429.183,234.884C427.018,237.379 425.359,240.243 424.292,243.327C423.265,246.082 422.479,248.915 421.94,251.796C421.927,251.937 421.927,252.078 421.94,252.22C421.94,253.62 421.94,255.124 421.94,256.705L421.94,262.269L402.376,262.269C401.667,262.269 400.987,261.998 400.486,261.516C399.985,261.034 399.703,260.38 399.703,259.699L399.703,223.961C400.358,224.179 401.039,224.449 401.841,224.758C405.764,226.587 409.956,227.826 414.269,228.433C420.831,229.088 427.566,226.338 433.58,224.256C436.219,223.3 438.931,222.539 441.692,221.982C442.454,221.882 443.221,221.826 443.99,221.815C444.955,221.799 445.906,222.034 446.743,222.496C450.172,224.638 453.89,226.316 457.795,227.482C461.884,228.549 466.428,228.6 470.343,226.107C470.69,225.891 471.084,225.755 471.495,225.71C471.906,225.665 472.322,225.712 472.71,225.848C473.099,225.983 473.45,226.204 473.734,226.492C474.019,226.78 474.231,227.128 474.352,227.508C474.486,227.945 474.606,228.381 474.713,228.793C475.666,233.511 476.083,238.316 475.956,243.121Z" fill="#0A0A0B"/>
<path d="M0,209.182C0,197.437 1.826,187.585 5.479,179.626C8.201,173.762 11.983,168.411 16.651,163.819C21.368,159.154 26.42,155.389 32.153,153.436C49.298,147.589 48.791,151.945 58.012,148.874C146.866,119.163 67.272,149.156 100.428,164.68C114.152,171.106 116.344,189.881 116.344,208.655C116.344,227.43 111.078,241.849 100.548,252.348C90.017,262.847 75.959,268.129 58.332,268.129C40.706,268.129 26.26,262.898 15.796,252.425C5.332,241.952 0,227.495 0,209.182ZM24.95,208.398C24.95,221.455 28.09,231.354 34.371,238.096C37.394,241.277 41.072,243.819 45.17,245.561C49.269,247.303 53.7,248.206 58.181,248.213C62.662,248.22 67.096,247.331 71.201,245.603C75.306,243.875 78.992,241.345 82.026,238.174C88.209,231.491 91.305,221.463 91.314,208.09C91.314,194.862 88.298,185.01 82.266,178.533C76.235,172.057 68.217,168.801 58.212,168.767C48.225,168.767 40.18,172.061 34.077,178.649C27.975,185.237 24.932,195.136 24.95,208.347L24.95,208.398Z" fill="#0A0A0B"/>
<path d="M155.36,266.102L132.375,266.102L132.375,182.573L153.757,182.573C153.758,183.367 154.002,184.144 154.459,184.806C154.916,185.467 155.565,185.986 156.326,186.295C157.086,186.605 157.925,186.692 158.737,186.547C159.549,186.401 160.299,186.029 160.893,185.477C161.708,184.686 162.604,183.976 163.566,183.357C166.54,181.556 169.994,180.627 173.508,180.684L173.655,180.684C175.537,180.72 177.383,181.187 179.039,182.047C180.696,182.907 182.115,184.134 183.18,185.626C184.245,187.119 184.924,188.834 185.162,190.629C185.399,192.425 185.189,194.249 184.547,195.95L181.593,204.046C178.425,201.87 174.671,200.616 170.782,200.435C167.828,200.354 164.937,201.262 162.604,203.005C160.376,204.719 158.617,207.799 157.325,212.245C156.033,216.691 155.378,226.042 155.36,240.298L155.36,266.102Z" fill="#0A0A0B"/>
<path d="M196.934,171.207L196.934,150.762L219.919,150.762L219.919,171.207L196.934,171.207ZM196.934,243.981L196.934,182.542L219.919,182.542L219.919,266.071C213.825,266.071 207.981,263.744 203.671,259.602C199.36,255.46 196.937,249.841 196.934,243.981Z" fill="#0A0A0B"/>
<path d="M239.691,271.597L250.008,272.805C256.933,273.799 263.466,276.519 268.958,280.695C271.136,282.263 274.584,283.047 279.275,283.047C285.279,283.047 289.778,282.19 292.772,280.477C294.915,279.168 296.532,277.196 297.356,274.887C298.064,273.062 298.411,269.669 298.411,264.748L298.411,252.552C291.542,261.573 282.869,266.084 272.392,266.084C260.73,266.084 251.487,261.338 244.663,251.845C239.317,244.341 236.645,235.002 236.645,223.831C236.645,209.824 240.15,199.115 247.162,191.704C250.418,188.139 254.444,185.3 258.958,183.384C263.473,181.469 268.368,180.523 273.301,180.614C284.045,180.614 292.91,185.15 299.895,194.223C299.895,191.114 301.179,188.133 303.464,185.936C305.75,183.738 308.85,182.503 312.082,182.503L321.437,182.503L321.437,257.474C321.437,267.343 320.59,274.715 318.898,279.59C317.542,283.925 315.096,287.871 311.775,291.079C308.259,294.108 304.08,296.339 299.547,297.607C293.258,299.328 286.733,300.121 280.197,299.959C265.47,299.959 255.024,297.534 248.859,292.685C245.925,290.523 243.557,287.733 241.942,284.536C240.327,281.339 239.511,277.824 239.558,274.27C239.558,273.538 239.625,272.651 239.691,271.597ZM260.218,222.584C260.218,231.451 262,237.941 265.563,242.053C267.122,243.993 269.126,245.56 271.419,246.633C273.711,247.705 276.231,248.253 278.78,248.234C281.493,248.262 284.178,247.707 286.64,246.611C289.102,245.515 291.279,243.906 293.012,241.899C296.888,237.684 298.826,231.43 298.826,223.137C298.826,214.484 296.972,208.059 293.266,203.861C291.571,201.853 289.423,200.243 286.985,199.152C284.547,198.061 281.883,197.518 279.194,197.564C276.581,197.516 273.991,198.049 271.627,199.121C269.263,200.193 267.188,201.776 265.563,203.745C262.009,207.857 260.227,214.137 260.218,222.584Z" fill="#0A0A0B"/>
<path d="M342.457,171.207L342.457,150.762L365.456,150.762L365.456,171.207L342.457,171.207ZM342.457,243.981L342.457,182.542L365.456,182.542L365.456,266.071C362.437,266.073 359.448,265.503 356.659,264.394C353.869,263.284 351.334,261.658 349.199,259.606C347.063,257.555 345.369,255.12 344.212,252.438C343.055,249.757 342.459,246.884 342.457,243.981Z" fill="#0A0A0B"/>
</svg>
