<svg width="32" height="36" viewBox="0 0 32 36" fill="none" xmlns="http://www.w3.org/2000/svg" xmlns:xlink="http://www.w3.org/1999/xlink">
<path d="M25.2,5.64C23.834,4.079 23.08,2.075 23.08,0L16.9,0L16.9,24.8C16.854,26.142 16.287,27.414 15.321,28.347C14.354,29.28 13.064,29.801 11.72,29.8C8.88,29.8 6.52,27.48 6.52,24.6C6.52,21.16 9.84,18.58 13.26,19.64L13.26,13.32C6.36,12.4 0.32,17.76 0.32,24.6C0.32,31.26 5.84,36 11.7,36C17.98,36 23.08,30.9 23.08,24.6L23.08,12.02C25.586,13.82 28.595,14.785 31.68,14.78L31.68,8.6C31.68,8.6 27.92,8.78 25.2,5.64Z" fill="#F2EEE9"/>
</svg>
