<svg width="48" height="48" viewBox="0 0 48 48" fill="none" xmlns="http://www.w3.org/2000/svg" xmlns:xlink="http://www.w3.org/1999/xlink">
<path d="M0,3.438C0,1.539 1.578,0 3.525,0L44.475,0C46.422,0 48,1.539 48,3.438L48,44.562C48,46.461 46.422,48 44.475,48L3.525,48C1.578,48 0,46.461 0,44.562L0,3.438ZM14.829,40.182L14.829,18.507L7.626,18.507L7.626,40.182L14.829,40.182ZM11.229,15.546C13.74,15.546 15.303,13.884 15.303,11.802C15.258,9.675 13.743,8.058 11.277,8.058C8.811,8.058 7.2,9.678 7.2,11.802C7.2,13.884 8.763,15.546 11.181,15.546L11.229,15.546ZM25.953,40.182L25.953,28.077C25.953,27.429 26.001,26.781 26.193,26.319C26.712,25.026 27.897,23.685 29.889,23.685C32.496,23.685 33.537,25.671 33.537,28.587L33.537,40.182L40.74,40.182L40.74,27.75C40.74,21.09 37.188,17.994 32.448,17.994C28.626,17.994 26.913,20.094 25.953,21.573L25.953,21.648L25.905,21.648L25.953,21.573L25.953,18.507L18.753,18.507C18.843,20.541 18.753,40.182 18.753,40.182L25.953,40.182Z" fill="#F2EEE9"/>
</svg>
